<svg width="31" height="31" viewBox="0 0 31 31" fill="none" xmlns="http://www.w3.org/2000/svg">
<path d="M21.9599 2.58331H9.55986C6.13746 2.58331 3.35986 5.46373 3.35986 9.01581V16.74V18.0316C3.35986 21.5837 6.13746 24.4641 9.55986 24.4641H11.4199C11.7547 24.4641 12.2011 24.6966 12.4119 24.9808L14.2719 27.5512C15.0903 28.6879 16.4295 28.6879 17.2479 27.5512L19.1079 24.9808C19.3435 24.6579 19.7155 24.4641 20.0999 24.4641H21.9599C25.3823 24.4641 28.1599 21.5837 28.1599 18.0316V9.01581C28.1599 5.46373 25.3823 2.58331 21.9599 2.58331ZM16.9999 17.7604H9.55986C9.05146 17.7604 8.62986 17.3212 8.62986 16.7916C8.62986 16.2621 9.05146 15.8229 9.55986 15.8229H16.9999C17.5083 15.8229 17.9299 16.2621 17.9299 16.7916C17.9299 17.3212 17.5083 17.7604 16.9999 17.7604ZM21.9599 11.3021H9.55986C9.05146 11.3021 8.62986 10.8629 8.62986 10.3333C8.62986 9.80373 9.05146 9.36456 9.55986 9.36456H21.9599C22.4683 9.36456 22.8899 9.80373 22.8899 10.3333C22.8899 10.8629 22.4683 11.3021 21.9599 11.3021Z" fill="#00B050"/>
</svg>
