<svg width="35" height="34" viewBox="0 0 35 34" fill="none" xmlns="http://www.w3.org/2000/svg">
<g clip-path="url(#clip0_4_9159)">
<path d="M31.3569 14.1667H29.145V14.9394H31.3569V14.1667Z" fill="#589CFB"/>
<path d="M22.119 23.9545C21.0781 23.9545 14.052 23.9545 13.0112 23.9545C6.24535 25.7576 0 26.7879 0 34H35C35 26.7879 28.8848 25.7576 22.119 23.9545Z" fill="#84D9F3"/>
<path d="M35.0001 34C35.0001 26.7879 28.7548 25.7576 21.989 23.9545C21.4685 23.9545 19.3867 23.9545 17.4351 23.9545V34H35.0001Z" fill="#77B0FB"/>
<path d="M8.06686 14.4242H3.64307V8.62878H8.06686C8.06686 9.14394 8.84753 10.1742 8.84753 11.3333C8.84753 12.4924 8.06686 13.7803 8.06686 14.4242Z" fill="#DC4C67"/>
<path d="M21.9889 24.856C21.9889 27.303 20.0373 29.2348 17.5651 29.2348C15.093 29.2348 13.0112 27.303 13.0112 24.856C13.0112 24.3409 13.0112 22.7954 13.0112 22.2803C13.922 22.7954 20.948 22.7954 21.9889 22.2803C21.9889 22.2803 21.9889 24.9848 21.9889 24.856Z" fill="#D6A279"/>
<path d="M21.9887 24.856C21.9887 24.5985 21.9887 22.5378 21.9887 22.2803C20.6876 22.9242 19.1263 22.6666 17.5649 22.6666V29.3636C20.0371 29.3636 21.9887 27.303 21.9887 24.856Z" fill="#C59268"/>
<path d="M26.933 8.62878C26.933 9.40151 26.1523 10.4318 26.1523 11.3333C26.1523 11.9773 26.4126 12.3636 26.6728 12.75V14.4242H31.2267C31.2267 13.3939 31.2267 10.1742 31.2267 8.62878H26.933Z" fill="#C11F74"/>
<path d="M17.565 23.4394C12.3606 23.4394 8.06689 19.3182 8.06689 14.1667C8.06689 12.8788 8.06689 4.76517 8.06689 3.73486C8.06689 6.43941 10.6691 7.5985 13.4015 7.5985L26.9331 8.11365V14.1667C26.9331 19.3182 22.7695 23.4394 17.565 23.4394Z" fill="#EBCEA5"/>
<path d="M26.9332 14.1667C26.9332 13.0076 26.9332 9.65911 26.9332 7.85608H17.4351V23.5682C22.7696 23.4394 26.9332 19.1894 26.9332 14.1667Z" fill="#E7B889"/>
<path d="M29.1449 17.3864C27.7136 17.3864 18.6058 17.3864 17.5649 17.3864V19.5758H31.3568V14.6818C30.7062 14.6818 29.5352 14.6818 29.1449 14.6818V17.3864Z" fill="#589CFB"/>
<path d="M26.9331 4.89394V8.62879H13.0111C10.2788 8.62879 8.06689 6.43939 8.06689 3.73485C8.06689 3.09091 8.06689 0.515152 8.06689 0H9.62823L15.6134 2.57576V0H22.1189C24.7212 0 26.9331 2.18939 26.9331 4.89394Z" fill="#2B4C9F"/>
<path d="M26.933 4.89394C26.933 2.18939 24.7211 0 22.1188 0H17.5649V8.62879H27.0631C26.933 8.11364 26.933 5.40909 26.933 4.89394Z" fill="#213B82"/>
</g>
<defs>
<clipPath id="clip0_4_9159">
<rect width="35" height="34" fill="white"/>
</clipPath>
</defs>
</svg>
