<svg width="24" height="24" viewBox="0 0 24 24" fill="none" xmlns="http://www.w3.org/2000/svg">
<rect width="24" height="24" rx="12" fill="#E6F7EE"/>
<path d="M18 17.334H19.3333V18.6673H4.66667V17.334H6.00001V6.00065C6.00001 5.63246 6.29849 5.33398 6.66667 5.33398H17.3333C17.7015 5.33398 18 5.63246 18 6.00065V17.334ZM9.33334 11.334V12.6673H11.3333V11.334H9.33334ZM9.33334 8.66732V10.0007H11.3333V8.66732H9.33334ZM9.33334 14.0007V15.334H11.3333V14.0007H9.33334ZM12.6667 14.0007V15.334H14.6667V14.0007H12.6667ZM12.6667 11.334V12.6673H14.6667V11.334H12.6667ZM12.6667 8.66732V10.0007H14.6667V8.66732H12.6667Z" fill="#00B050"/>
</svg>
