<svg width="28" height="50" viewBox="0 0 28 50" fill="none" xmlns="http://www.w3.org/2000/svg">
<g clip-path="url(#clip0_4_24239)">
<path d="M0.222178 41.8141C-0.222266 42.9203 -4.37493e-05 44.2477 1.11107 44.6902C2.22218 45.1327 3.55551 44.9115 3.99996 43.8053C3.99996 43.8053 9.99996 39.1592 10.6666 37.3893C11.3333 35.6194 13.7777 28.3185 13.7777 28.3185L18 38.0531L15.3333 46.9026C14.8888 48.4513 14.6666 49.5575 17.1111 50C18 50.2212 18.8888 49.7787 20.2222 46.0177C20.2222 46.0177 22.2222 39.3805 22.6666 37.8318C23.1111 36.2831 18.4444 28.0973 18.4444 28.0973L19.3333 19.9115L21.1111 23.23L25.3333 25C26.4444 25.4424 27.1111 25.2212 27.7777 24.3362C28.2222 23.23 28.2222 22.5663 27.5555 22.1239L23.1111 20.1327L19.3333 14.1593C18.8888 11.7256 17.5555 9.95571 15.7777 9.95571C14.2222 9.73447 12.4444 11.2831 11.7777 13.4955L5.55551 22.3451C5.55551 22.5663 5.33329 22.5663 5.33329 22.7876V23.0088C5.33329 23.0088 5.33329 23.0088 5.33329 23.23C5.11107 23.8938 5.33329 24.7787 6.22218 25.2212L9.99996 27.2123L7.77773 35.6194L0.222178 41.8141ZM10.6666 23.8938L9.33329 23.23L10.8888 21.0177L10.6666 23.8938Z" fill="#00B050"/>
<path d="M11.5554 4.64602C11.5554 2.21239 13.7776 0 16.4443 0C19.111 0 21.111 2.21239 21.111 4.64602C21.111 7.30088 18.8888 9.29203 16.4443 9.29203C13.7776 9.51327 11.5554 7.30088 11.5554 4.64602Z" fill="#00B050"/>
</g>
<defs>
<clipPath id="clip0_4_24239">
<rect width="28" height="50" fill="white"/>
</clipPath>
</defs>
</svg>
