<svg width="41" height="41" viewBox="0 0 41 41" fill="none" xmlns="http://www.w3.org/2000/svg">
<g clip-path="url(#clip0_4_24248)">
<path d="M33.377 20.603C33.377 13.598 27.6082 8.03516 20.3971 8.03516C13.1861 8.03516 7.41724 13.598 7.41724 20.603C7.41724 27.608 13.1861 33.1708 20.3971 33.1708C27.6082 33.1708 33.377 27.402 33.377 20.603ZM19.367 28.0201V26.7839C18.5429 26.7839 17.7187 26.7839 16.6886 25.9598C16.0705 25.5477 16.0705 24.9296 16.4826 24.3115C16.8946 23.6934 17.5127 23.6934 18.1308 24.1055C18.5429 24.3115 18.7489 24.5176 19.161 24.5176H22.0454C22.6635 24.5176 23.2816 23.8995 23.2816 23.2814C23.2816 22.6633 22.6635 22.0452 22.0454 22.0452H19.161C17.1007 22.0452 15.4524 20.397 15.4524 18.3367C15.4524 16.2764 16.8946 14.4221 19.367 14.4221V13.1859C19.367 12.5678 19.9851 11.9497 20.6032 11.9497C21.2213 11.9497 21.8393 12.5678 21.8393 13.1859V14.4221C23.0755 14.4221 24.3117 15.0402 24.9298 15.8643C25.3419 16.2764 25.3419 17.1005 24.9298 17.5125C24.5177 17.9246 23.6936 17.9246 23.2816 17.5125C22.8695 17.1005 22.4574 16.8945 21.8393 16.8945H19.161C18.5429 16.8945 17.9248 17.5125 17.9248 18.1306C17.9248 18.7487 18.5429 19.3668 19.161 19.3668H21.8393C23.8997 19.3668 25.5479 21.0151 25.5479 23.0754C25.5479 24.9296 24.1057 26.7839 21.6333 26.7839V28.0201C21.6333 28.6382 21.0152 29.2563 20.3971 29.2563C19.779 29.0502 19.367 28.6382 19.367 28.0201Z" fill="#00B050"/>
<path d="M9.27145 35.0251L8.65336 30.4924C8.65336 29.8743 8.03527 29.4623 7.21115 29.4623C6.59306 29.4623 6.181 30.0803 6.181 30.9045L6.38703 31.9346C5.15085 30.4924 4.1207 28.6381 3.50261 26.7839C-1.44212 13.3919 10.5076 -5.17517e-05 24.1056 2.88437C24.7237 3.0904 25.3418 2.67834 25.5478 2.06025C25.7539 1.44216 25.3418 0.824069 24.7237 0.618039C9.27145 -2.88447 -4.32654 12.3618 1.23627 27.608C2.06039 29.6683 3.09055 31.7286 4.53276 33.3768L3.29658 33.1708C2.88452 32.9648 2.06039 33.3768 2.06039 34.201C1.85436 34.819 2.26642 35.4371 3.09055 35.6432L8.03527 36.6733C8.65336 36.6733 9.47748 35.8492 9.27145 35.0251Z" fill="#00B050"/>
<path d="M39.7638 13.3919C38.9397 11.3316 37.9095 9.27128 36.4673 7.62304L37.7035 7.82907C38.3216 8.0351 38.9397 7.62304 39.1457 6.79891C39.1457 6.18082 38.7337 5.56273 37.9095 5.3567L32.9648 4.32655C32.1407 4.12052 31.3166 4.73861 31.5226 5.56273L32.1407 10.0954C32.1407 10.7135 32.7588 11.1255 33.5829 11.1255C34.201 11.1255 34.6131 10.5075 34.6131 9.68334L34.407 8.65319C35.6432 10.0954 36.6734 11.9497 37.2914 13.8039C42.2362 27.1959 30.2864 40.5879 16.6884 37.7034C16.0703 37.4974 15.4523 37.9095 15.2462 38.7336C15.0402 39.3517 15.4523 39.9698 16.0703 40.1758C31.7286 43.8843 45.3266 28.6381 39.7638 13.3919Z" fill="#00B050"/>
</g>
<defs>
<clipPath id="clip0_4_24248">
<rect width="41" height="41" fill="white"/>
</clipPath>
</defs>
</svg>
