<svg width="41" height="41" viewBox="0 0 41 41" fill="none" xmlns="http://www.w3.org/2000/svg">
<g clip-path="url(#clip0_4_24246)">
<path d="M5.2217 6.38208V1.35377C5.2217 0.580189 5.60849 0 6.38208 0C7.15566 0 7.73585 0.580189 7.73585 1.35377V6.57547C7.73585 7.15566 7.15566 7.73585 6.38208 7.73585C5.60849 7.73585 5.2217 7.15566 5.2217 6.38208ZM26.8821 7.73585C27.6557 7.73585 28.2358 7.15566 28.2358 6.38208V1.35377C28.2358 0.580189 27.6557 0 26.8821 0C26.1085 0 25.5283 0.580189 25.5283 1.35377V6.57547C25.7217 7.15566 26.1085 7.73585 26.8821 7.73585ZM41 30.75C41 36.3585 36.3585 41 30.75 41C25.1415 41 20.5 36.3585 20.5 30.75C20.5 25.1415 25.1415 20.5 30.75 20.5C36.3585 20.5 41 25.1415 41 30.75ZM38.4858 30.75C38.4858 26.4953 35.0047 23.0142 30.75 23.0142C26.4953 23.0142 23.0142 26.4953 23.0142 30.75C23.0142 35.0047 26.4953 38.4858 30.75 38.4858C35.0047 38.4858 38.4858 35.0047 38.4858 30.75ZM10.25 15.4717H5.2217V20.6934H10.4434V15.4717H10.25ZM5.2217 28.2358H10.4434V23.0142H5.2217V28.2358ZM12.7642 20.5H17.9858V15.4717H12.7642V20.5ZM12.7642 28.2358H17.9858V23.0142H12.7642V28.2358ZM2.51415 30.5566V12.7642H30.75V17.9858H33.2642V7.92924C33.2642 6.38208 32.1038 5.0283 30.5566 5.0283H29.3962V6.38208C29.3962 7.73585 28.2358 8.89623 26.8821 8.89623C25.5283 8.89623 24.3679 7.73585 24.3679 6.38208V5.2217H8.89623V6.57547C8.89623 7.73585 7.73585 8.89623 6.38208 8.89623C5.0283 8.89623 3.86792 7.73585 3.86792 6.38208V5.2217H2.70755C1.16038 5.2217 0 6.38208 0 7.92924V30.5566C0 32.1038 1.16038 33.4575 2.70755 33.4575H17.7925V30.9434H2.70755C2.70755 30.75 2.51415 30.5566 2.51415 30.5566ZM25.7217 15.4717H20.5V20.6934H25.7217V15.4717ZM34.6179 30.75H30.75V26.8821C30.75 26.1085 30.1698 25.5283 29.3962 25.5283C28.6226 25.5283 28.0425 26.1085 28.0425 26.8821V32.1038C28.0425 32.8774 28.6226 33.4575 29.3962 33.4575H34.6179C35.3915 33.4575 35.9717 32.8774 35.9717 32.1038C35.9717 31.3302 35.3915 30.75 34.6179 30.75Z" fill="#00B050"/>
</g>
<defs>
<clipPath id="clip0_4_24246">
<rect width="41" height="41" fill="white"/>
</clipPath>
</defs>
</svg>
