<svg width="39" height="39" viewBox="0 0 39 39" fill="none" xmlns="http://www.w3.org/2000/svg">
<g clip-path="url(#clip0_4_41509)">
<path d="M19.5924 39.1848C30.413 39.1848 39.1848 30.413 39.1848 19.5924C39.1848 8.77182 30.413 0 19.5924 0C8.77182 0 0 8.77182 0 19.5924C0 30.413 8.77182 39.1848 19.5924 39.1848Z" fill="#F15731"/>
<path d="M15.1564 7.7627C15.7109 7.94753 16.0805 8.50203 16.2654 9.24137C16.635 10.5352 16.8199 11.6442 17.0047 12.9381C17.0047 13.1229 17.0047 13.3077 17.0047 13.4926C17.0047 14.0471 16.8199 14.4167 16.2654 14.6016C15.8957 14.7864 15.526 14.9712 14.9715 14.9712C14.6019 15.1561 14.417 15.3409 14.417 15.7106C14.2322 16.2651 14.2322 16.6347 14.417 17.1892C15.3412 19.9617 17.0047 22.3646 19.2227 24.2129C19.5924 24.5826 20.1469 24.9523 20.7014 25.3219C21.0711 25.5068 21.4407 25.5068 21.8104 25.5068C21.9952 25.5068 22.3649 25.3219 22.5497 25.1371C22.7346 24.7674 22.9194 24.5826 23.2891 24.2129C23.6587 23.6584 24.2132 23.4736 24.9526 23.6584C25.3222 23.8433 25.6919 24.0281 26.0616 24.2129C26.8009 24.5826 27.5403 24.9523 28.0948 25.3219C28.2796 25.5068 28.4644 25.5068 28.6493 25.6916C29.2038 26.0613 29.5734 26.4309 29.5734 26.9854C29.5734 27.1703 29.5734 27.3551 29.5734 27.5399C29.3886 27.9096 29.2038 28.2793 29.0189 28.649C28.0948 30.1276 26.9858 31.0518 25.1374 31.2366C24.7677 31.2366 24.3981 31.2366 24.0284 31.2366C23.8436 31.2366 23.4739 31.2366 23.2891 31.0518C22.9194 30.867 22.7346 30.867 22.3649 30.6821C20.7014 30.1276 19.4076 29.2035 18.1137 28.0944C16.635 26.8006 15.3412 25.3219 14.0474 23.6584C12.5687 21.6253 11.2749 19.7769 10.3507 17.3741C9.98102 16.4499 9.61135 15.1561 9.42651 13.6774C9.42651 13.3077 9.42651 12.9381 9.42651 12.5684C9.42651 12.3835 9.42651 12.0139 9.61135 11.829V11.6442C10.1658 9.61104 11.4597 8.50203 13.308 7.94753C13.6777 7.7627 14.2322 7.7627 14.6019 7.7627C14.7867 7.7627 14.9715 7.7627 15.1564 7.7627Z" fill="white"/>
</g>
<defs>
<clipPath id="clip0_4_41509">
<rect width="39" height="39" fill="white"/>
</clipPath>
</defs>
</svg>
