<svg width="24" height="24" viewBox="0 0 24 24" fill="none" xmlns="http://www.w3.org/2000/svg">
<path d="M18.1201 6C17.5345 6 16.9969 5.65 16.7281 5.11L16.0369 3.66C15.5953 2.75 14.4433 2 13.4641 2H11.2657C10.2769 2 9.12489 2.75 8.68329 3.66L7.99209 5.11C7.72329 5.65 7.18569 6 6.60009 6C4.51689 6 2.86569 7.83 3.00009 9.99L3.49929 18.25C3.61449 20.31 4.68009 22 7.32969 22H17.3905C20.0401 22 21.0961 20.31 21.2209 18.25L21.7201 9.99C21.8545 7.83 20.2033 6 18.1201 6ZM10.9201 7.25H13.8001C14.1937 7.25 14.5201 7.59 14.5201 8C14.5201 8.41 14.1937 8.75 13.8001 8.75H10.9201C10.5265 8.75 10.2001 8.41 10.2001 8C10.2001 7.59 10.5265 7.25 10.9201 7.25ZM12.3601 18.12C10.5745 18.12 9.11529 16.61 9.11529 14.74C9.11529 12.87 10.5649 11.36 12.3601 11.36C14.1553 11.36 15.6049 12.87 15.6049 14.74C15.6049 16.61 14.1457 18.12 12.3601 18.12Z" fill="#00B050"/>
</svg>
