<svg width="39" height="39" viewBox="0 0 39 39" fill="none" xmlns="http://www.w3.org/2000/svg">
<g clip-path="url(#clip0_4_41517)">
<path d="M19.4085 38.8169C30.1274 38.8169 38.8169 30.1274 38.8169 19.4085C38.8169 8.68946 30.1274 0 19.4085 0C8.68946 0 0 8.68946 0 19.4085C0 30.1274 8.68946 38.8169 19.4085 38.8169Z" fill="#15A1DC"/>
<path d="M8.60571 18.6764C8.60571 14.099 13.3663 10.2539 19.4085 10.2539C25.4508 10.2539 30.2113 14.099 30.2113 18.6764C30.2113 22.8877 26.1832 26.5497 21.0564 27.099L23.4367 31.3102L18.8592 27.099C13.1832 26.9159 8.60571 23.2539 8.60571 18.6764Z" fill="white"/>
<path d="M23.6198 19.9579C24.3277 19.9579 24.9015 19.3841 24.9015 18.6762C24.9015 17.9684 24.3277 17.3945 23.6198 17.3945C22.912 17.3945 22.3381 17.9684 22.3381 18.6762C22.3381 19.3841 22.912 19.9579 23.6198 19.9579Z" fill="#51A888"/>
<path d="M19.4084 19.9579C20.1163 19.9579 20.6901 19.3841 20.6901 18.6762C20.6901 17.9684 20.1163 17.3945 19.4084 17.3945C18.7005 17.3945 18.1267 17.9684 18.1267 18.6762C18.1267 19.3841 18.7005 19.9579 19.4084 19.9579Z" fill="#51A888"/>
<path d="M15.3803 19.9579C16.0882 19.9579 16.662 19.3841 16.662 18.6762C16.662 17.9684 16.0882 17.3945 15.3803 17.3945C14.6725 17.3945 14.0986 17.9684 14.0986 18.6762C14.0986 19.3841 14.6725 19.9579 15.3803 19.9579Z" fill="#51A888"/>
</g>
<defs>
<clipPath id="clip0_4_41517">
<rect width="39" height="39" fill="white"/>
</clipPath>
</defs>
</svg>
