<svg width="41" height="41" viewBox="0 0 41 41" fill="none" xmlns="http://www.w3.org/2000/svg">
<path d="M34.0078 41H2.70155C1.1124 41 0 39.8833 0 38.4475V9.73151H36.5504V38.4475C36.5504 39.8833 35.438 41 34.0078 41Z" fill="#E3927E"/>
<path d="M36.5505 9.73151V38.4475C36.5505 39.8833 35.4381 41.1595 33.8489 41.1595H32.2598C33.69 41.1595 34.9613 40.0428 34.9613 38.4475V9.73151H36.5505Z" fill="#DD7F66"/>
<path d="M36.5504 13.4008H3.65504C1.58915 13.4008 0 11.8054 0 9.73152C0 7.65759 1.58915 6.06226 3.65504 6.06226H33.8488C35.2791 6.06226 36.5504 7.17899 36.5504 8.77432V13.4008Z" fill="#F4C6BB"/>
<path d="M36.8682 28.716H29.0813C27.1744 28.716 25.7441 27.2802 25.7441 25.3658C25.7441 23.4514 27.1744 22.0156 29.0813 22.0156H36.8682C37.5038 22.0156 37.9806 22.4942 37.9806 23.1323V27.4397C37.9806 28.2374 37.5038 28.716 36.8682 28.716Z" fill="#F4C6BB"/>
<path d="M37.9808 23.2919V27.5992C37.9808 28.2374 37.5041 28.716 36.8684 28.716H35.2793C35.915 28.716 36.3917 28.2374 36.3917 27.5992V23.2919C36.3917 22.6537 35.915 22.1751 35.2793 22.1751H36.8684C37.5041 22.0156 37.9808 22.6537 37.9808 23.2919Z" fill="#F0BDB4"/>
<path d="M30.6706 25.3657C30.6706 26.0039 30.1938 26.642 29.3992 26.642C28.7636 26.642 28.1279 26.1634 28.1279 25.3657C28.1279 24.7276 28.6047 24.0895 29.3992 24.0895C30.0349 24.0895 30.6706 24.7276 30.6706 25.3657Z" fill="#E3927E"/>
<path d="M30.6703 25.3657C30.6703 26.0039 30.1936 26.642 29.399 26.642C28.9223 26.642 28.4455 26.3229 28.2866 26.0039C28.2866 26.0039 28.2866 26.0039 28.4455 26.0039C29.0812 26.0039 29.7169 25.5253 29.7169 24.7276C29.7169 24.5681 29.7169 24.249 29.5579 24.0895C30.1936 24.249 30.6703 24.7276 30.6703 25.3657Z" fill="#DD7F66"/>
<path d="M27.4923 10.3696H4.7675C4.44967 10.3696 4.13184 10.0506 4.13184 9.73152C4.13184 9.41245 4.44967 9.09338 4.7675 9.09338H27.4923C27.8101 9.09338 28.128 9.41245 28.128 9.73152C27.969 10.0506 27.8101 10.3696 27.4923 10.3696Z" fill="#E3927E"/>
<path d="M41 7.65759C41 11.965 37.5038 15.3152 33.372 15.3152C29.0813 15.3152 25.7441 11.8054 25.7441 7.65759C25.7441 3.50973 29.0813 0 33.372 0C37.5038 0 41 3.50973 41 7.65759Z" fill="#FEF0AE"/>
<path d="M40.9998 7.6576C40.9998 11.965 37.5036 15.3152 33.3719 15.3152C31.306 15.3152 29.399 14.5175 27.9688 13.0817C29.0812 13.7199 30.3525 14.0389 31.7827 14.0389C36.0734 14.0389 39.4106 10.5292 39.4106 6.38134C39.4106 4.30741 38.616 2.39301 37.1858 0.957214C39.4106 2.23348 40.9998 4.78601 40.9998 7.6576Z" fill="#FEE45A"/>
<path d="M32.1008 11.0078C31.624 11.0078 31.4651 10.6887 31.4651 10.3696C31.4651 10.0506 31.4651 9.89103 31.1473 9.57197C30.9884 9.41243 30.6706 9.2529 30.5116 9.2529C30.1938 9.2529 29.876 9.09337 29.876 8.7743C29.876 8.45524 30.0349 8.13617 30.3527 8.13617C30.9884 8.13617 31.624 8.2957 31.9419 8.7743C32.4186 9.2529 32.5775 9.89103 32.5775 10.5292C32.7364 10.8482 32.4186 11.0078 32.1008 11.0078Z" fill="#FAC600"/>
<path d="M34.3254 11.0078C33.8486 11.0078 33.6897 10.6887 33.6897 10.3696C33.8486 9.41243 33.5308 8.45523 32.8951 7.8171C32.2595 7.17896 31.4649 6.8599 30.6703 7.01943C30.3525 7.01943 30.0347 6.8599 30.0347 6.54083C30.0347 6.22176 30.1936 5.9027 30.5114 5.9027C31.7827 5.74317 32.8951 6.22176 33.6897 7.01943C34.8021 7.97663 35.1199 9.25289 34.961 10.5292C34.961 10.8482 34.6432 11.0078 34.3254 11.0078Z" fill="#FAC600"/>
<path d="M36.5504 11.0078C36.0737 11.0078 35.9147 10.6887 35.9147 10.3697C36.0737 8.77434 35.5969 7.17901 34.4845 6.06228C33.3721 4.94555 32.1008 4.46695 30.5116 4.62648C30.1938 4.62648 29.876 4.46695 29.876 4.14788C29.876 3.82881 30.0349 3.50975 30.3527 3.50975C32.1008 3.35022 34.0078 3.98835 35.2791 5.26461C36.7093 6.70041 37.345 8.61481 37.0271 10.5292C37.1861 10.8483 36.8682 11.0078 36.5504 11.0078Z" fill="#FAC600"/>
</svg>
