<svg width="40" height="40" viewBox="0 0 40 40" fill="none" xmlns="http://www.w3.org/2000/svg">
<g clip-path="url(#clip0_4_41531)">
<path d="M20.0922 40.1843C31.1888 40.1843 40.1843 31.1888 40.1843 20.0922C40.1843 8.99557 31.1888 0 20.0922 0C8.99557 0 0 8.99557 0 20.0922C0 31.1888 8.99557 40.1843 20.0922 40.1843Z" fill="#7B2F91"/>
<path d="M7.92627 12.3506L19.3548 20.8298C19.7235 21.0142 20.2765 21.0142 20.6452 20.8298L32.0737 12.3506H7.92627Z" fill="white"/>
<path d="M16.0369 19.3544L8.1106 26.912C7.92627 26.7277 7.92627 26.359 7.92627 26.1747V13.2715L16.0369 19.3544Z" fill="white"/>
<path d="M23.2258 19.9082L31.3364 27.4658C31.152 27.6501 30.7834 27.6501 30.5991 27.6501H9.58523C9.4009 27.6501 9.03223 27.6501 8.8479 27.4658L16.9585 19.9082L20.0921 22.3045L23.2258 19.9082Z" fill="white"/>
<path d="M32.2581 13.2715V25.9904C32.2581 26.1747 32.2581 26.5434 32.0737 26.7277L24.1475 19.3544L32.2581 13.2715Z" fill="white"/>
</g>
<defs>
<clipPath id="clip0_4_41531">
<rect width="40" height="40" fill="white"/>
</clipPath>
</defs>
</svg>
