<svg width="34" height="34" viewBox="0 0 34 34" fill="none" xmlns="http://www.w3.org/2000/svg">
<path d="M31.7668 10.95L20.2168 1.71662C18.4334 0.283285 15.5501 0.283285 13.7834 1.69995L2.23345 10.95C0.93345 11.9833 0.100116 14.1666 0.38345 15.8L2.60012 29.0666C3.00012 31.4333 5.26678 33.35 7.66678 33.35H26.3335C28.7168 33.35 31.0001 31.4166 31.4001 29.0666L33.6168 15.8C33.8834 14.1666 33.0501 11.9833 31.7668 10.95ZM17.0001 22.8333C14.7001 22.8333 12.8334 20.9666 12.8334 18.6666C12.8334 16.3666 14.7001 14.5 17.0001 14.5C19.3001 14.5 21.1668 16.3666 21.1668 18.6666C21.1668 20.9666 19.3001 22.8333 17.0001 22.8333Z" fill="#FFFF00"/>
</svg>
