<svg width="30" height="30" viewBox="0 0 30 30" fill="none" xmlns="http://www.w3.org/2000/svg">
<path d="M10.656 12.67H4.164C2.99877 12.67 2 11.6851 2 10.536V4.134C2 2.98492 2.99877 2 4.164 2H10.656C11.8212 2 12.82 2.98492 12.82 4.134V10.536C12.82 11.6851 11.8212 12.67 10.656 12.67Z" fill="white"/>
<path d="M27.3471 13.0872H19.3879C17.9594 13.0872 16.7349 11.8792 16.7349 10.4698V2.61745C16.7349 1.20805 17.9594 0 19.3879 0H27.3471C28.7757 0 30.0002 1.20805 30.0002 2.61745V10.4698C30.0002 11.8792 28.7757 13.0872 27.3471 13.0872Z" fill="white"/>
<path d="M24.9592 27.6711H19.6531C18.2245 27.6711 17 26.4631 17 25.0537V19.6175C17 18.2081 18.2245 17 19.6531 17H25.1633C26.5918 17 27.8163 18.2081 27.8163 19.6175V25.0537C27.6122 26.4631 26.3878 27.6711 24.9592 27.6711Z" fill="white"/>
<path d="M10.6122 30H2.65306C1.22449 30 0 28.7919 0 27.3825V19.5302C0 18.1208 1.22449 16.9127 2.65306 16.9127H10.6122C12.0408 16.9127 13.2653 18.1208 13.2653 19.5302V27.3825C13.2653 28.7919 12.0408 30 10.6122 30Z" fill="white"/>
</svg>
