<svg width="31" height="31" viewBox="0 0 31 31" fill="none" xmlns="http://www.w3.org/2000/svg">
<path d="M24.6648 18.7162L23.4248 16.5721C23.1644 16.0941 22.9288 15.19 22.9288 14.6604V11.3925C22.9288 8.35706 21.2176 5.73498 18.75 4.5079C18.1052 3.31956 16.9148 2.58331 15.5508 2.58331C14.1992 2.58331 12.984 3.3454 12.3392 4.54665C9.92117 5.79956 8.24717 8.39581 8.24717 11.3925V14.6604C8.24717 15.19 8.01157 16.0941 7.75117 16.5591L6.49877 18.7162C6.00277 19.5816 5.89117 20.5375 6.20117 21.4158C6.49877 22.2812 7.20557 22.9529 8.12317 23.2758C10.5288 24.1283 13.0584 24.5416 15.588 24.5416C18.1176 24.5416 20.6472 24.1283 23.0528 23.2887C23.9208 22.9916 24.5904 22.3071 24.9128 21.4158C25.2352 20.5246 25.1484 19.5429 24.6648 18.7162Z" fill="#00B050"/>
<path d="M19.0719 25.8462C18.5511 27.3446 17.1747 28.4166 15.5627 28.4166C14.5831 28.4166 13.6159 28.0033 12.9339 27.2671C12.5371 26.8796 12.2395 26.3629 12.0659 25.8333C12.2271 25.8591 12.3883 25.8721 12.5619 25.8979C12.8471 25.9366 13.1447 25.9754 13.4423 26.0012C14.1491 26.0658 14.8683 26.1046 15.5875 26.1046C16.2943 26.1046 17.0011 26.0658 17.6955 26.0012C17.9559 25.9754 18.2163 25.9625 18.4643 25.9237C18.6627 25.8979 18.8611 25.8721 19.0719 25.8462Z" fill="#00B050"/>
</svg>
