<svg width="45" height="42" viewBox="0 0 45 42" fill="none" xmlns="http://www.w3.org/2000/svg">
<g clip-path="url(#clip0_4_8997)">
<path d="M45.0001 20.7758V39.758C45.0001 40.9537 44.1061 42 42.765 42H29.9504C28.7584 42 27.7153 41.1032 27.7153 39.758V20.7758C27.7153 19.5801 28.6094 18.5338 29.9504 18.5338H32.9306C32.9306 19.4306 33.6756 20.1779 34.5696 20.1779H38.2948C39.1888 20.1779 39.9339 19.4306 39.9339 18.5338H42.914C43.9571 18.6833 45.0001 19.5801 45.0001 20.7758ZM33.8246 32.8826V29.7438H30.6955V32.8826H33.8246Z" fill="#F8EC7D"/>
<path d="M32.9307 18.6833C32.9307 17.637 33.6757 17.0391 34.5697 17.0391H38.2949C39.1889 17.0391 39.934 17.7865 39.934 18.6833V18.8327C39.934 19.7295 39.1889 20.4768 38.2949 20.4768H34.5697C33.5267 20.3274 32.9307 19.58 32.9307 18.6833Z" fill="#6FE3FF"/>
<path d="M35.1654 10.1637V16.8897H34.5694C33.6753 16.8897 32.9303 17.637 32.9303 18.5338V18.6833H29.9502C28.7581 18.6833 27.7151 19.5801 27.7151 20.9253V34.8256L17.4336 40.8043V20.3274L35.1654 10.1637Z" fill="#C16752"/>
<path d="M17.583 20.3274L8.64258 15.0961L26.2254 4.93237L35.1658 10.1637L17.583 20.3274Z" fill="#AF593C"/>
<path d="M33.8245 29.7438H30.6953V32.8826H33.8245V29.7438Z" fill="#6FE3FF"/>
<path d="M26.2252 4.93238L8.64238 15.0961L0 10.1637L17.5828 0L26.2252 4.93238Z" fill="#C16752"/>
<path d="M17.5828 20.3274V40.6548L0 30.4911V10.1637L8.64238 15.0961L17.5828 20.3274Z" fill="#E48E66"/>
<path d="M31.4402 27.5018H30.6951C30.3971 27.5018 30.0991 27.2028 30.0991 26.9039V23.7651C30.0991 23.4662 30.3971 23.1672 30.6951 23.1672H33.8243C34.1223 23.1672 34.4203 23.4662 34.4203 23.7651V24.2135C34.4203 24.5124 34.1223 24.8114 33.8243 24.8114C33.5263 24.8114 33.2283 24.6619 33.0793 24.363H31.2912V26.1566C31.5892 26.1566 31.8872 26.4555 31.8872 26.7544C32.0362 27.2028 31.7382 27.5018 31.4402 27.5018Z" fill="#6FE3FF"/>
<path d="M31.4402 39.4591H30.6951C30.3971 39.4591 30.0991 39.1602 30.0991 38.8612V35.7224C30.0991 35.4235 30.3971 35.1246 30.6951 35.1246H33.8243C34.1223 35.1246 34.4203 35.4235 34.4203 35.7224V36.3203C34.4203 36.6192 34.1223 36.9182 33.8243 36.9182C33.5263 36.9182 33.2283 36.6192 33.2283 36.3203H31.2912V38.1139C31.5892 38.1139 31.8872 38.4128 31.8872 38.7118C32.0362 39.1602 31.7382 39.4591 31.4402 39.4591Z" fill="#6FE3FF"/>
<path d="M33.3776 27.3523C33.2286 27.3523 33.0796 27.3523 32.9306 27.2028L31.8876 26.1566C31.5896 25.8576 31.5896 25.4092 31.8876 25.2598C32.1856 24.9608 32.6326 24.9608 32.7816 25.2598L33.3776 25.8576L35.3147 23.9146C35.6127 23.6156 36.0598 23.6156 36.2088 23.9146C36.5068 24.2135 36.5068 24.6619 36.2088 24.8114L33.8247 27.2028C33.6757 27.3523 33.5266 27.3523 33.3776 27.3523Z" fill="#2561A1"/>
<path d="M33.3776 39.4591C33.2286 39.4591 33.0796 39.4591 32.9306 39.3096L31.8876 38.2634C31.5896 37.9644 31.5896 37.516 31.8876 37.3666C32.1856 37.0676 32.6326 37.0676 32.7816 37.3666L33.3776 37.9644L35.3147 36.0214C35.6127 35.7224 36.0598 35.7224 36.2088 36.0214C36.5068 36.3203 36.5068 36.7687 36.2088 36.9182L33.8247 39.3096C33.6757 39.4591 33.5266 39.4591 33.3776 39.4591Z" fill="#2561A1"/>
<path d="M42.0197 25.8577H37.8475C37.5495 25.8577 37.2515 25.5587 37.2515 25.2598C37.2515 24.9609 37.5495 24.6619 37.8475 24.6619H42.0197C42.3177 24.6619 42.6157 24.9609 42.6157 25.2598C42.6157 25.5587 42.3177 25.8577 42.0197 25.8577Z" fill="#E48E66"/>
<path d="M42.0197 31.9858H37.8475C37.5495 31.9858 37.2515 31.6868 37.2515 31.3879C37.2515 31.089 37.5495 30.79 37.8475 30.79H42.0197C42.3177 30.79 42.6157 31.089 42.6157 31.3879C42.6157 31.6868 42.3177 31.9858 42.0197 31.9858Z" fill="#E48E66"/>
<path d="M42.0197 37.9644H37.8475C37.5495 37.9644 37.2515 37.6655 37.2515 37.3665C37.2515 37.0676 37.5495 36.7687 37.8475 36.7687H42.0197C42.3177 36.7687 42.6157 37.0676 42.6157 37.3665C42.6157 37.6655 42.3177 37.9644 42.0197 37.9644Z" fill="#E48E66"/>
</g>
<defs>
<clipPath id="clip0_4_8997">
<rect width="45" height="42" fill="white"/>
</clipPath>
</defs>
</svg>
