<svg width="43" height="42" viewBox="0 0 43 42" fill="none" xmlns="http://www.w3.org/2000/svg">
<path d="M17.3117 39.0891L13.9611 38.396L12.0065 40.3366L5.44482 35.2079L9.77275 32.297L14.3799 27.1683C15.2176 26.3366 16.6137 26.4752 17.1721 27.4455L22.7565 33.6831C23.5942 34.6534 23.315 36.0396 22.1981 36.7326L18.987 38.6732C18.5682 39.0891 18.0098 39.0891 17.3117 39.0891Z" fill="#FFE6CF"/>
<path d="M22.896 33.6832L21.4999 32.1584L15.9155 35.4852C15.3571 35.7624 14.7986 35.901 14.1006 35.901L11.1687 35.6238L8.65576 37.8416L12.0064 40.4753L13.961 38.5347L17.3116 39.2278C18.0097 39.2278 18.5681 39.2278 19.1265 38.8119L22.3376 36.8713C23.4545 36.1782 23.7337 34.6535 22.896 33.6832Z" fill="#EED4BD"/>
<path d="M22.6168 33.8218C21.9188 32.8515 21.2207 33.2674 20.5227 32.2971C19.8246 31.3268 20.6623 30.7723 19.9642 29.802C19.2662 28.8317 18.5681 29.2476 17.8701 28.2773C17.172 27.307 18.0097 26.7525 17.3116 25.7822C16.8928 25.2278 16.1947 23.8416 15.7759 23.703L12.2856 25.3664L18.4285 34.9307C18.9869 35.901 20.2434 36.1783 21.2207 35.4852L22.3376 34.7921C22.7564 34.6535 22.896 34.2377 22.6168 33.8218Z" fill="#334A5C"/>
<path d="M12.5648 27.0297L9.77256 28.6931C9.21412 28.9703 8.51607 28.8317 8.23685 28.2772L6.70113 25.7822C6.42191 25.2277 6.56152 24.5347 7.11996 24.2574L9.91217 22.5941C10.1914 22.4555 10.6102 22.4555 10.8894 22.8713L12.844 26.0594C12.9836 26.3366 12.844 26.7525 12.5648 27.0297Z" fill="#334A5C"/>
<path d="M14.24 18.0198L8.65562 21.4852C7.95757 21.901 7.67835 22.8713 8.09718 23.5644L10.8894 28C11.3082 28.6931 12.2855 28.9703 12.9835 28.5545L18.568 25.0891L36.2985 21.208L25.6881 4.01984L14.24 18.0198Z" fill="#FDCF66"/>
<path d="M33.9254 17.1881L16.3345 21.2079C16.3345 21.2079 10.3313 24.9505 9.354 25.5049L11.0293 28.1386C11.4482 28.8317 12.4254 29.1089 13.1235 28.6931L18.7079 25.2277L36.4384 21.3465L33.9254 17.1881Z" fill="#F5B354"/>
<path d="M18.7078 25.0891L13.1234 28.5545C12.4253 28.9703 11.448 28.8317 11.0292 28L8.237 23.5644C7.81817 22.8713 7.95778 21.901 8.79545 21.4852L14.3799 18.0198L18.7078 25.0891Z" fill="#FD705C"/>
<path d="M16.1949 21.2079C16.1949 21.2079 10.1916 24.9505 9.21436 25.505L10.8897 28.1386C11.3085 28.8317 12.2858 29.1089 12.9838 28.6931L15.776 27.0297L18.5683 25.3664L16.1949 21.2079Z" fill="#D73D38"/>
<path d="M37.4155 22.4555L36.7175 22.8713C36.2987 23.1485 35.7402 23.0099 35.6006 22.5941L24.0129 4.15842C23.7337 3.74258 23.8733 3.18813 24.2922 3.04951L24.9902 2.63367C25.409 2.35644 25.9675 2.49506 26.1071 2.9109L37.6948 21.3465C37.974 21.7624 37.8344 22.3168 37.4155 22.4555Z" fill="#FD705C"/>
<path d="M37.6947 21.3466L35.7401 18.2971L33.5063 19.6832L35.4609 22.7327C35.7401 23.1485 36.1589 23.2872 36.5778 23.0099L37.2758 22.5941C37.8343 22.3169 37.9739 21.7624 37.6947 21.3466Z" fill="#D73D38"/>
<path d="M20.9414 36.4555C21.3602 37.1485 22.1979 37.2872 22.896 36.8713L24.9901 35.6238C25.6882 35.208 25.8278 34.3763 25.4089 33.6832C24.9901 32.9901 24.1524 32.8515 23.4544 33.2674L21.3602 34.5149C20.8018 34.7921 20.5226 35.7624 20.9414 36.4555Z" fill="#FFE6CF"/>
<path d="M25.5485 33.5446C25.4089 33.2673 25.1297 33.1287 24.8505 32.9901C24.9901 33.5446 24.7108 34.099 24.1524 34.3763L22.0583 35.6238C21.6394 35.901 21.2206 35.901 20.8018 35.7624C20.8018 35.901 20.9414 36.1782 20.9414 36.3168C21.3602 37.0099 22.1979 37.1485 22.8959 36.7327L24.9901 35.4852C25.6881 35.2079 25.9673 34.2376 25.5485 33.5446Z" fill="#EED4BD"/>
<path d="M19.9644 33.5445C20.3832 34.2376 21.3605 34.5148 21.9189 33.9604L24.0131 32.7129C24.7111 32.297 24.9903 31.3267 24.4319 30.7723C24.0131 30.0792 23.0358 29.802 22.4773 30.3564L20.3832 31.6039C19.8247 32.0198 19.5455 32.8515 19.9644 33.5445Z" fill="#FFE6CF"/>
<path d="M24.5714 30.7723C24.4318 30.4951 24.1526 30.3564 23.8734 30.2178C24.013 30.7723 23.7338 31.3267 23.1753 31.604L21.0812 32.8515C20.6623 33.1287 20.1039 33.1287 19.6851 32.9901C19.6851 33.1287 19.8247 33.406 19.8247 33.5446C20.2435 34.2376 21.2208 34.5149 21.7792 33.9604L23.8734 32.7129C24.8506 32.4357 24.9903 31.4654 24.5714 30.7723Z" fill="#EED4BD"/>
<path d="M18.4287 31.0495C18.8476 31.7425 19.8248 32.0198 20.3833 31.4653L22.4774 30.2178C23.1755 29.802 23.4547 28.8317 22.8963 28.2772C22.4774 27.5841 21.5001 27.3069 20.9417 27.8614L18.9872 29.1089C18.2891 29.5247 18.0099 30.3564 18.4287 31.0495Z" fill="#FFE6CF"/>
<path d="M23.0358 28.2772C22.8962 28 22.6169 27.8614 22.3377 27.7228C22.3377 28.2772 22.1981 28.8317 21.6397 29.1089L19.5455 30.3564C19.1267 30.6337 18.5682 30.6337 18.1494 30.4951C18.1494 30.6337 18.289 30.9109 18.289 31.0495C18.7079 31.7426 19.6851 32.0198 20.2436 31.4654L22.3377 30.2178C23.315 29.9406 23.4546 28.9703 23.0358 28.2772Z" fill="#EED4BD"/>
<path d="M17.0325 28.5545C17.4513 29.2476 18.4286 29.5248 18.987 28.9703L21.0812 27.7228C21.7792 27.307 22.0584 26.3367 21.5 25.7822C21.0812 25.0891 20.1039 24.8119 19.5455 25.3664L17.4513 26.6139C16.7532 27.0297 16.6136 27.8614 17.0325 28.5545Z" fill="#FFE6CF"/>
<path d="M21.6398 25.7822C21.5002 25.505 21.0813 25.2277 20.8021 25.0891C20.9417 25.6436 20.6625 26.3366 20.1041 26.6139L18.0099 27.8614C17.5911 28.1386 17.1722 28.1386 16.7534 28C16.7534 28.1386 16.893 28.2772 16.893 28.4158C17.3119 29.1089 18.2891 29.3861 18.8476 28.8317L20.9417 27.5842C21.7794 27.3069 22.0586 26.4752 21.6398 25.7822Z" fill="#EED4BD"/>
<path d="M20.1041 30.3564L19.6853 30.4951C19.1268 30.9109 18.2892 30.6337 17.8704 30.0792L17.3119 29.1089C17.0327 28.5545 16.3346 28.4159 15.7762 28.8317C15.2178 32.7129 9.77295 32.297 9.77295 32.297L13.1236 27.1683C13.4028 26.7525 13.682 26.4753 14.1009 26.198L16.0554 25.0891C17.0327 24.5347 18.1496 24.8119 18.708 25.6436L20.5229 28.5545C20.9418 29.1089 20.8022 29.9406 20.1041 30.3564Z" fill="#FFE6CF"/>
<path d="M20.523 28.5544C20.3834 28.6931 20.2437 28.8317 20.1041 28.9703L19.6853 29.2475C19.1269 29.6633 18.2892 29.3861 17.8704 28.8317L17.3119 27.7228C17.0327 27.1683 16.3346 27.0297 15.7762 27.4455C15.497 29.1089 14.5197 30.6336 13.4028 31.6039C14.5197 31.0495 15.497 30.2178 15.7762 28.6931C16.3346 28.4158 17.0327 28.5544 17.3119 28.9703L18.01 29.9406C18.4288 30.495 19.1269 30.6336 19.8249 30.3564L20.2437 30.0792C20.8022 29.9406 20.9418 29.1089 20.523 28.5544Z" fill="#EED4BD"/>
<path d="M12.146 40.4753L6.70117 34.099L8.51611 32.5743H8.65572L13.9609 38.8119V38.9505L12.146 40.4753Z" fill="#CCD4DE"/>
<path d="M13.9611 38.8119L11.1689 35.4852L9.354 37.0099L12.1462 40.3367L13.9611 38.8119C13.9611 38.9505 13.9611 38.9505 13.9611 38.8119Z" fill="#94A3A8"/>
<path d="M34.3441 10.6732C34.0649 10.6732 33.9253 10.5346 33.7856 10.396C33.646 10.1188 33.646 9.70295 34.0649 9.56433L37.5551 7.48512C37.8343 7.34651 38.2532 7.34651 38.3928 7.76235C38.5324 8.03958 38.5324 8.45542 38.2532 8.59403L34.7629 10.6732C34.6233 10.6732 34.4837 10.6732 34.3441 10.6732Z" fill="#D9D9CF"/>
<path d="M42.4418 15.9406C42.3022 15.9406 42.3022 15.9406 42.4418 15.9406L37.2762 15.3861C36.8574 15.3861 36.7178 15.1089 36.7178 14.6931C36.7178 14.2772 36.997 14.1386 37.4158 14.1386L42.4418 14.6931C42.8606 14.6931 43.0002 14.9703 43.0002 15.3861C43.0002 15.6634 42.721 15.9406 42.4418 15.9406Z" fill="#D9D9CF"/>
<path d="M31.5521 5.9604C31.4125 5.9604 31.4125 5.9604 31.2729 5.9604C30.9936 5.82179 30.7144 5.40595 30.854 5.12872L32.669 0.415846C32.8086 0.138618 33.2274 -0.13861 33.5066 4.15742e-06C33.7858 0.138618 34.0651 0.55446 33.9255 0.831687L32.1105 5.54456C31.9709 5.82179 31.6917 5.9604 31.5521 5.9604Z" fill="#D9D9CF"/>
<path d="M12.5649 40.4752L6.7013 33.6832H6.56169L0.418831 38.5347C0.13961 38.6733 0 38.9505 0 39.2277V41.1683C0 41.5842 0.418831 42 0.837662 42H11.0292C11.3084 42 11.5877 41.8614 11.7273 41.7228L12.5649 40.6139V40.4752Z" fill="#3A5466"/>
<path d="M12.565 40.4752L9.77282 37.2871L5.72412 42H11.0293C11.3085 42 11.5878 41.8614 11.7274 41.7228L12.565 40.6138V40.4752Z" fill="#17424F"/>
</svg>
