<svg width="48" height="41" viewBox="0 0 48 41" fill="none" xmlns="http://www.w3.org/2000/svg">
<g clip-path="url(#clip0_4_9075)">
<path d="M0 20.4296L3.28571 21.8385C3.28571 21.8385 3.42857 21.8385 3.28571 21.9794L3 25.3608V25.5017L6.14286 26.9107C6.14286 26.9107 6.28571 26.9107 6.14286 27.0515L5.71429 30.5739V30.7148L9 32.1237C9 32.1237 9.14286 32.1237 9 32.2646L8.57143 35.7869V35.9278L11.8571 37.3368C11.8571 37.3368 12 37.3368 11.8571 37.4777L11.4286 41C11.4286 41.1409 11.5714 41.1409 11.5714 41.1409L47.4286 20.8522C47.5714 20.8522 47.5714 20.7113 47.4286 20.5704L44.1429 19.1615C44.1429 19.1615 44 19.1615 44.1429 19.0206L44.5714 15.4983V15.3574L41.2857 13.9485C41.2857 13.9485 41.1429 13.9485 41.2857 13.8076L41.7143 10.2852V10.1443L38.4286 8.73539C38.4286 8.73539 38.2857 8.73539 38.4286 8.5945L38.8571 5.21306V5.07216L35.7143 3.66323C35.7143 3.66323 35.5714 3.66323 35.7143 3.52234L36.1429 0C36.1429 0 36 0 35.8571 0L0 20.2887V20.4296Z" fill="#FFB125"/>
<path d="M41.7146 13.9485C41.5717 13.8076 41.7146 13.9485 41.7146 13.9485L42.0003 10.2852V10.1443L38.7146 8.73539C38.7146 8.73539 38.5717 8.7354 38.7146 8.5945L39.1431 5.21306V5.07217L36.0003 3.66323C36.0003 3.66323 35.8574 3.66323 36.0003 3.52234L36.4289 0C36.1431 0 36.0003 0 35.8574 0L32.4289 1.97251C32.5717 1.97251 32.5717 1.97251 32.5717 2.1134L32.286 5.63574V5.77663L35.4289 7.18557C35.4289 7.18557 35.5717 7.18557 35.4289 7.32646L35.0003 10.7079V10.8488L38.286 12.2577C38.286 12.2577 38.4289 12.2577 38.286 12.3986L37.8574 15.921V16.0619L41.1431 17.4708C41.1431 17.4708 41.286 17.4708 41.1431 17.6117L40.8574 20.8522C40.8574 21.134 40.7146 21.4158 40.4289 21.5567L12.286 37.3368L11.8574 40.8591C11.8574 41 12.0003 41 12.0003 41L44.4288 22.6838L47.8574 20.7113C48.0003 20.7113 48.0003 20.5704 47.8574 20.4296L44.5717 19.0206C44.5717 19.0206 44.5717 19.0206 44.5717 18.8797L45.0003 15.3574V15.2165L41.7146 13.9485Z" fill="#FF901D"/>
<path d="M0.000209279 20.2887C-0.142648 20.2887 -0.142648 20.4296 0.000209279 20.5705L3.28592 21.9794C3.28592 21.9794 3.42878 21.9794 3.28592 22.1203L3.00021 25.3608V25.5017L6.14307 26.9107C6.14307 26.9107 6.28592 26.9107 6.14307 27.0516L5.7145 30.5739V30.7148L9.00021 32.1237C9.00021 32.1237 9.14307 32.1237 9.00021 32.2646L8.57164 35.787V35.9278L11.8574 37.3368C11.8574 37.3368 12.0002 37.3368 11.8574 37.4777L11.4288 41C11.4288 41.1409 11.5716 41.1409 11.5716 41.1409L18.7145 37.1959L7.14307 16.2028L0.000209279 20.2887Z" fill="#61AFF6"/>
<path d="M12.286 37.3368C12.286 37.3368 12.286 37.4777 12.286 37.3368C12.286 37.4777 12.286 37.4777 12.286 37.3368L11.8574 40.8591L19.0003 36.9141L17.4289 34.2371L12.286 37.3368Z" fill="#55A2F0"/>
<path d="M23.0005 19.1615L21.5719 16.6255C20.7148 15.0756 21.429 13.9485 22.7148 13.244C23.8576 12.6804 25.2862 12.6804 26.1433 14.0894L27.5719 16.6255C28.429 18.1753 27.7148 19.3024 26.4291 20.0069C25.1433 20.7114 23.8576 20.7114 23.0005 19.1615ZM24.8576 14.7938C24.429 14.0894 23.8576 14.0894 23.1433 14.3712C22.4291 14.7938 22.2862 15.2165 22.7148 15.921L24.1433 18.4571C24.5719 19.1615 25.1433 19.1615 25.7148 18.8798C26.4291 18.4571 26.5719 18.0344 26.1433 17.3299L24.8576 14.7938ZM30.1433 9.01721C30.1433 9.1581 30.2862 9.1581 30.2862 9.299L31.1433 25.0791C31.1433 25.3609 31.0005 25.6426 30.7148 25.7835C30.2862 26.0653 29.8576 25.7835 29.7148 25.5017C29.7148 25.3609 29.5719 25.3609 29.5719 25.22L28.7148 9.43989C28.7148 9.1581 28.8576 9.01721 29.0005 8.87632C29.429 8.59453 30.0005 8.73542 30.1433 9.01721ZM33.8576 20.7114L32.4291 18.1753C31.5719 16.6255 32.2862 15.4983 33.5719 14.7938C34.8576 14.0894 36.1433 14.0894 37.0005 15.4983L38.4291 18.0344C39.2862 19.5842 38.5719 20.7114 37.2862 21.4158C36.0005 22.1203 34.7148 22.1203 33.8576 20.7114ZM35.7148 16.3437C35.2862 15.6392 34.7148 15.6392 34.0005 15.921C33.2862 16.3437 33.1433 16.7663 33.5719 17.4708L35.0005 20.0069C35.4291 20.7114 36.0005 20.7114 36.5719 20.4296C37.2862 20.0069 37.4291 19.5842 37.0005 18.8798L35.7148 16.3437Z" fill="white"/>
<path d="M18.7146 15.7801C18.5718 15.4983 18.1432 15.3574 17.8575 15.4983L11.8575 18.8798C11.4289 19.1616 11.4289 19.5842 11.5718 19.866C11.7146 20.0069 11.8575 20.1478 12.0003 20.1478C12.1432 20.1478 12.2861 20.1478 12.5718 20.1478L18.5718 16.7664C18.8575 16.4846 18.8575 16.0619 18.7146 15.7801Z" fill="white"/>
<path d="M21.1432 19.866C21.0004 19.5842 20.5718 19.4433 20.2861 19.5842L14.2861 22.9656C14.0004 23.1065 13.8575 23.5292 14.0004 23.811C14.1432 23.9519 14.2861 24.0928 14.429 24.0928C14.5718 24.0928 14.7147 24.0928 15.0004 24.0928L21.0004 20.7114C21.1432 20.7114 21.2861 20.2887 21.1432 19.866Z" fill="white"/>
<path d="M26.0002 28.1787C25.8573 27.8969 25.4287 27.7561 25.143 27.8969L19.143 31.2784C18.8573 31.4193 18.7145 31.842 18.8573 32.1238C19.0002 32.2646 19.143 32.4055 19.2859 32.4055C19.4287 32.4055 19.5716 32.4055 19.8573 32.4055L25.8573 29.0241C26.0002 28.8832 26.143 28.6014 26.0002 28.1787Z" fill="white"/>
<path d="M23.5719 24.0928C23.4291 23.811 23.0005 23.6701 22.7148 23.811L16.7148 27.1925C16.4291 27.3333 16.2862 27.756 16.4291 28.0378C16.5719 28.1787 16.7148 28.3196 16.8577 28.3196C17.0005 28.3196 17.1434 28.3196 17.4291 28.3196L23.4291 24.9382C23.5719 24.7973 23.7148 24.3746 23.5719 24.0928Z" fill="white"/>
</g>
<defs>
<clipPath id="clip0_4_9075">
<rect width="48" height="41" fill="white"/>
</clipPath>
</defs>
</svg>
