<svg width="39" height="39" viewBox="0 0 39 39" fill="none" xmlns="http://www.w3.org/2000/svg">
<g clip-path="url(#clip0_4_41524)">
<path d="M19.5899 39.1797C30.409 39.1797 39.1797 30.409 39.1797 19.5899C39.1797 8.77068 30.409 0 19.5899 0C8.77068 0 0 8.77068 0 19.5899C0 30.409 8.77068 39.1797 19.5899 39.1797Z" fill="#32BA46"/>
<path d="M19.5898 31.6318C17.4332 31.6318 15.4562 31.0926 13.4793 30.0143L8.80644 31.6318L9.70506 26.5996C8.26727 24.4429 7.36865 22.1065 7.36865 19.4106C7.36865 12.7608 12.7604 7.36914 19.4101 7.36914C26.0599 7.36914 31.4516 12.7608 31.4516 19.4106C31.6313 26.2401 26.2396 31.6318 19.5898 31.6318ZM13.659 28.0373L14.0184 28.2171C15.6359 29.2954 17.6129 29.8346 19.4101 29.8346C25.1613 29.8346 29.6544 25.1618 29.6544 19.5903C29.6544 13.8392 24.9816 9.3461 19.4101 9.3461C13.659 9.3461 9.16589 14.0189 9.16589 19.5903C9.16589 21.9267 9.88478 24.0834 11.3226 25.8807L11.5023 26.2401L10.9631 28.936L13.659 28.0373Z" fill="white"/>
<path d="M13.4794 14.9172C13.4794 14.9172 14.1983 13.6592 14.7374 13.6592C15.2766 13.6592 15.9955 13.6592 16.1752 14.0186C16.3549 14.3781 17.2536 16.5348 17.2536 16.5348C17.2536 16.5348 17.4333 16.8942 17.2536 17.2537C17.0738 17.6131 16.5347 18.1523 16.5347 18.1523C16.5347 18.1523 16.1752 18.5117 16.5347 18.8712C16.8941 19.2306 17.2536 19.9495 18.1522 21.0278C19.0508 21.9265 20.848 22.6454 20.848 22.6454C20.848 22.6454 21.0277 22.6454 21.2075 22.4656C21.3872 22.2859 22.2858 21.2076 22.2858 21.2076C22.2858 21.2076 22.6453 20.8481 23.0047 21.0278C23.5439 21.2076 25.5208 22.2859 25.5208 22.2859C25.5208 22.2859 25.7006 22.2859 25.7006 22.8251C25.7006 23.1845 25.5208 24.0831 25.1614 24.4426C24.8019 24.802 23.9033 25.7007 22.6453 25.7007C21.3872 25.7007 18.1522 24.6223 16.5347 23.0048C14.9171 21.3873 13.2996 19.5901 12.9402 17.9725C12.9402 16.1753 12.9402 15.4564 13.4794 14.9172Z" fill="white"/>
</g>
<defs>
<clipPath id="clip0_4_41524">
<rect width="39" height="39" fill="white"/>
</clipPath>
</defs>
</svg>
